<?xml version="1.0"?>
<!--Icons from directory ""-->
<svg xmlns="http://www.w3.org/2000/svg" width="17" height="80" viewBox="0 0 17 80"><svg xmlns:xlink="http://www.w3.org/1999/xlink" height="16" width="16" version="1.1" viewBox="0 0 16 16" id="Github-black" y="0"><title>Github-black</title><desc>Created with Sketch.</desc><g id="Github-black-Page-1" fill-rule="evenodd" fill="none"><g id="Github-black-Desktop" fill="#797979" transform="translate(-359 -164)"><g id="Github-black-Bio"><g id="Github-black-Header" transform="translate(270 101)"><g id="Github-black-Socail" transform="translate(63 63)"><path id="Github-black-Github" d="m34.088 0.32c-4.262 0-7.718 3.4519-7.718 7.7109 0 3.4061 2.212 6.2961 5.279 7.3161 0.386 0.071 0.527-0.168 0.527-0.372 0-0.183-0.007-0.668-0.011-1.311-2.147 0.466-2.6-1.034-2.6-1.034-0.35-0.89-0.857-1.127-0.857-1.127-0.7-0.479 0.054-0.469 0.054-0.469 0.774 0.054 1.181 0.794 1.181 0.794 0.689 1.179 1.807 0.838 2.247 0.641 0.07-0.499 0.27-0.838 0.49-1.031-1.714-0.195-3.516-0.856-3.516-3.8104 0-0.8419 0.301-1.5301 0.795-2.0693-0.08-0.1952-0.345-0.9788 0.075-2.0404 0 0 0.648-0.2072 2.123 0.7903 0.616-0.171 1.275-0.2563 1.932-0.2597 0.656 0.0034 1.316 0.0887 1.932 0.2597 1.474-0.9975 2.121-0.7903 2.121-0.7903 0.421 1.0616 0.156 1.8452 0.076 2.0404 0.495 0.5392 0.794 1.2274 0.794 2.0693 0 2.9614-1.805 3.6134-3.524 3.8044 0.277 0.238 0.524 0.709 0.524 1.428 0 1.031-0.01 1.862-0.01 2.115 0 0.206 0.139 0.446 0.531 0.371 3.064-1.022 5.274-3.91 5.274-7.3151 0-4.259-3.456-7.7109-7.719-7.7109"/></g></g></g></g></g></svg><svg xmlns:xlink="http://www.w3.org/1999/xlink" height="16" width="16" version="1.1" viewBox="0 0 16 16" id="Google-black" y="16"><title>Google-black</title><desc>Created with Sketch.</desc><g id="Google-black-Page-1" fill-rule="evenodd" fill="none"><g id="Google-black-Desktop" fill="#797979" transform="translate(-413 -164)"><g id="Google-black-Bio"><g id="Google-black-Header" transform="translate(270 101)"><g id="Google-black-Socail" transform="translate(63 63)"><path id="Google-black-Google" d="m87.903 6.6075v3.105s3.007-0.0041 4.231-0.0041c-0.663 2.0126-1.694 3.1086-4.231 3.1086-2.568 0-4.572-2.085-4.572-4.657 0-2.5722 2.004-4.6574 4.572-4.6574 1.357 0 2.234 0.478 3.038 1.1442 0.644-0.6449 0.59-0.7368 2.228-2.2862-1.39-1.2678-3.238-2.0406-5.266-2.0406-4.323 0-7.827 3.5101-7.827 7.84 0 4.33 3.504 7.84 7.827 7.84 6.461 0 8.04-5.635 7.516-9.3925h-7.516z"/></g></g></g></g></g></svg><svg xmlns:xlink="http://www.w3.org/1999/xlink" height="16" width="17" version="1.1" viewBox="0 0 17 16" id="Skype-black" y="32"><title>Skype-black</title><desc>Created with Sketch.</desc><g id="Skype-black-Page-1" fill-rule="evenodd" fill="none"><g id="Skype-black-Desktop" fill="#797979" transform="translate(-385 -164)"><g id="Skype-black-Bio"><g id="Skype-black-Header" transform="translate(270 101)"><g id="Skype-black-Socail" transform="translate(63 63)"><path id="Skype-black-Skype" d="m67.733 9.6305c0.112-0.5003 0.17-1.0184 0.17-1.5508 0-3.9885-3.296-7.2229-7.362-7.2229-0.429 0.00004-0.849 0.03654-1.259 0.10598-0.658-0.40686-1.437-0.64278-2.271-0.64278-2.359 0-4.27 1.8749-4.27 4.1897 0 0.7727 0.214 1.4956 0.586 2.1188-0.097 0.4683-0.149 0.9544-0.149 1.4512 0 3.9903 3.297 7.2233 7.363 7.2233 0.461 0 0.911-0.041 1.348-0.121 0.602 0.317 1.288 0.498 2.019 0.498 2.358 0 4.269-1.876 4.269-4.189 0-0.668-0.16-1.3-0.444-1.8605zm-3.416 1.9015c-0.34 0.474-0.843 0.848-1.497 1.113-0.645 0.264-1.418 0.398-2.299 0.398-1.058 0-1.944-0.183-2.637-0.543-0.495-0.262-0.902-0.616-1.212-1.056-0.313-0.442-0.471-0.88-0.471-1.305 0-0.2636 0.104-0.4933 0.307-0.6812 0.202-0.1869 0.46-0.2804 0.769-0.2804 0.252 0 0.471 0.0739 0.648 0.2208 0.17 0.1415 0.315 0.3508 0.432 0.6188 0.131 0.294 0.272 0.541 0.422 0.734 0.145 0.189 0.353 0.347 0.618 0.47 0.267 0.123 0.627 0.187 1.069 0.187 0.609 0 1.108-0.128 1.483-0.379 0.368-0.245 0.546-0.54 0.546-0.902 0-0.2837-0.094-0.508-0.284-0.6843-0.202-0.1834-0.466-0.3258-0.786-0.4256-0.335-0.1014-0.789-0.2127-1.351-0.3285-0.765-0.1602-1.414-0.3498-1.929-0.5662-0.529-0.2199-0.954-0.5253-1.266-0.9072-0.315-0.389-0.476-0.876-0.476-1.4485 0-0.5448 0.168-1.0371 0.5-1.4609 0.329-0.4211 0.81-0.7505 1.429-0.974 0.611-0.2217 1.337-0.3338 2.16-0.3338 0.658 0 1.236 0.0747 1.719 0.2225 0.485 0.1478 0.894 0.3472 1.215 0.5938 0.324 0.2493 0.565 0.5137 0.716 0.7897 0.152 0.2787 0.23 0.5556 0.23 0.8235 0 0.2582-0.101 0.4933-0.302 0.6971-0.201 0.2066-0.456 0.3107-0.756 0.3107-0.272 0-0.486-0.0658-0.633-0.194-0.138-0.1202-0.282-0.3072-0.441-0.5743-0.183-0.3418-0.405-0.6116-0.66-0.8021-0.248-0.1852-0.661-0.2778-1.23-0.2778-0.526 0-0.957 0.1033-1.275 0.3089-0.307 0.1968-0.457 0.4238-0.457 0.6927 0 0.1638 0.048 0.3018 0.148 0.4193 0.104 0.1264 0.252 0.235 0.439 0.3276 0.193 0.0953 0.393 0.1718 0.592 0.2253 0.204 0.0561 0.548 0.1388 1.019 0.2457 0.596 0.1246 1.143 0.2662 1.627 0.4184 0.491 0.1531 0.914 0.3419 1.261 0.5636 0.352 0.2252 0.63 0.5137 0.829 0.8591 0.199 0.3481 0.3 0.7754 0.3 1.2731 0 0.5942-0.175 1.1372-0.516 1.6112z"/></g></g></g></g></g></svg><svg xmlns:xlink="http://www.w3.org/1999/xlink" height="16" width="16" version="1.1" viewBox="0 0 16 16" id="Whatsapp-black" y="48"><title>Whatsapp-black</title><desc>Created with Sketch.</desc><g id="Whatsapp-black-Page-1" fill-rule="evenodd" fill="none"><g id="Whatsapp-black-Desktop" fill="#797979" transform="translate(-333 -164)"><g id="Whatsapp-black-Bio"><g id="Whatsapp-black-Header" transform="translate(270 101)"><g id="Whatsapp-black-Socail" transform="translate(63 63)"><path id="Whatsapp-black-Whatsapp" d="m7.7159 0.32c-4.2549 0-7.7159 3.4449-7.7159 7.6799 0 1.6796 0.54434 3.2371 1.4697 4.5011l-0.96172 2.854 2.9666-0.944c1.2202 0.804 2.6763 1.269 4.2458 1.269 4.2546 0 7.7156-3.445 7.7156-7.6799 0-4.2351-3.461-7.68-7.7156-7.68l-0.0045 0.00003v-0.00013zm-2.1547 3.9011c-0.1497-0.3567-0.2631-0.3702-0.4898-0.3794-0.0772-0.0044-0.1632-0.0089-0.2586-0.0089-0.295 0-0.6034 0.0858-0.7894 0.2754-0.2267 0.2302-0.7892 0.7674-0.7892 1.8691s0.8074 2.1673 0.9162 2.3163c0.1134 0.1489 1.5742 2.4424 3.8422 3.3774 1.7736 0.731 2.2994 0.663 2.7034 0.578 0.59-0.127 1.329-0.56 1.515-1.084s0.186-0.971 0.132-1.066c-0.055-0.094-0.204-0.1483-0.431-0.2614-0.227-0.1129-1.329-0.6547-1.538-0.7269-0.204-0.0767-0.3992-0.0496-0.5533 0.1672-0.2178 0.3025-0.4309 0.6096-0.6034 0.7941-0.136 0.145-0.3584 0.163-0.5443 0.086-0.2495-0.103-0.948-0.3475-1.81-1.1105-0.6668-0.5914-1.1204-1.3273-1.2519-1.5485-0.1316-0.2256-0.0135-0.3568 0.0907-0.4786 0.1134-0.14 0.2222-0.2393 0.3356-0.3703 0.1135-0.1308 0.177-0.1986 0.2496-0.3522 0.0771-0.1489 0.0226-0.3025-0.0318-0.4154s-0.508-1.2146-0.694-1.6614z"/></g></g></g></g></g></svg><svg xmlns:xlink="http://www.w3.org/1999/xlink" height="16" width="13" version="1.1" viewBox="0 0 13 16" id="stackoverflow-black" y="64"><title>stackoverflow-black</title><desc>Created with Sketch.</desc><g id="stackoverflow-black-Page-1" fill-rule="evenodd" fill="none"><g id="stackoverflow-black-Desktop" fill="#797979" transform="translate(-439 -164)"><g id="stackoverflow-black-Bio"><g id="stackoverflow-black-Header" transform="translate(270 101)"><g id="stackoverflow-black-Socail" transform="translate(63 63)"><g id="stackoverflow-black-stackoverflow" transform="translate(106.45)"><path d="m8.0674 13.31l-6.146 0.002-0.0006-1.295 6.1458-0.003 0.0008 1.296zm4.1526-7.3353l-1.051-5.9747-1.2934 0.22145 1.0514 5.9746 1.293-0.2213zm-4.0048 4.3793l-6.1198-0.5569-0.1205 1.2899 6.1199 0.556 0.1204-1.289zm0.4037-1.6906l-5.9349-1.5741-0.341 1.2506 5.9353 1.5743 0.3406-1.2508zm0.7749-1.4814l-5.2937-3.0807-0.6672 1.1152 5.2939 3.0809 0.667-1.1154zm1.2982-0.9072l-3.4629-5.0103-1.0846 0.7297 3.4628 5.0101 1.0847-0.7295z"/><polygon id="stackoverflow-black-stackoverflow-icon-path" points="9.1111 9.0491 9.1111 14.344 1.0499 14.344 1.0499 9.0491 0 9.0491 0 15.36 10.156 15.36 10.156 9.0491"/></g></g></g></g></g></g></svg></svg>
